HIERARCHY
ROOT Hips
{
	OFFSET 0.000000 83.214638 0.000000
	CHANNELS 6 Xposition Yposition Zposition Xrotation Yrotation Zrotation
	JOINT Pelvis
	{
		OFFSET 0.000000 0.000000 0.000000
		CHANNELS 3 Xrotation Yrotation Zrotation
		JOINT LeftUpLeg
		{
			OFFSET 8.479700 -4.795502 -0.379100
			CHANNELS 3 Xrotation Yrotation Zrotation
			JOINT LeftLeg
			{
				OFFSET 0.024144 -32.555107 0.112900
				CHANNELS 3 Xrotation Yrotation Zrotation
				JOINT LeftFoot
				{
					OFFSET -0.024144 -32.638630 -3.012600
					CHANNELS 3 Xrotation Yrotation Zrotation
					JOINT LeftToeBase
					{
						OFFSET 0.970200 -13.225400 11.864200
						CHANNELS 3 Xrotation Yrotation Zrotation
						End Site
						{
							OFFSET 0.000000 12.319262 0.000000
						}
					}
					JOINT LFootTongue
					{
						OFFSET 1.142400 -1.059800 6.665200
						CHANNELS 3 Xrotation Yrotation Zrotation
						End Site
						{
							OFFSET 0.000000 12.319262 0.000000
						}
					}
				}
				JOINT LeftPantLeg
				{
					OFFSET 0.918482 -16.533964 -2.284700
					CHANNELS 3 Xrotation Yrotation Zrotation
					End Site
					{
						OFFSET 0.350399 24.744368 0.000000
					}
				}
			}
		}
		JOINT RightUpLeg
		{
			OFFSET -8.479700 -4.795502 -0.379100
			CHANNELS 3 Xrotation Yrotation Zrotation
			JOINT RightLeg
			{
				OFFSET -0.023144 -32.555092 0.112900
				CHANNELS 3 Xrotation Yrotation Zrotation
				JOINT RightFoot
				{
					OFFSET 0.023144 -32.638641 -3.012700
					CHANNELS 3 Xrotation Yrotation Zrotation
					JOINT RightToeBase
					{
						OFFSET -0.970200 -13.225400 11.864200
						CHANNELS 3 Xrotation Yrotation Zrotation
						End Site
						{
							OFFSET 0.000000 12.319244 0.000000
						}
					}
					JOINT RFootTongue
					{
						OFFSET -1.142200 -1.059800 6.665200
						CHANNELS 3 Xrotation Yrotation Zrotation
						End Site
						{
							OFFSET 0.000000 12.319243 0.000000
						}
					}
				}
				JOINT RightPantLeg
				{
					OFFSET -0.919482 -16.533978 -2.284800
					CHANNELS 3 Xrotation Yrotation Zrotation
					End Site
					{
						OFFSET -0.350400 24.744419 0.000000
					}
				}
			}
		}
	}
	JOINT Spine
	{
		OFFSET 0.000000 7.722000 1.166200
		CHANNELS 3 Xrotation Yrotation Zrotation
		JOINT Spine1
		{
			OFFSET 0.000000 12.024101 0.248800
			CHANNELS 3 Xrotation Yrotation Zrotation
			JOINT Spine2
			{
				OFFSET 0.000000 11.502998 -0.491200
				CHANNELS 3 Xrotation Yrotation Zrotation
				JOINT Neck
				{
					OFFSET 0.000000 18.430702 -3.123100
					CHANNELS 3 Xrotation Yrotation Zrotation
					JOINT Head
					{
						OFFSET 0.000000 9.051102 1.034000
						CHANNELS 3 Xrotation Yrotation Zrotation
						JOINT HairB
						{
							OFFSET 0.208400 24.786102 24.822300
							CHANNELS 3 Xrotation Yrotation Zrotation
							End Site
							{
								OFFSET 0.000000 32.263779 0.000000
							}
						}
						JOINT HairA
						{
							OFFSET -7.081100 24.428299 23.196600
							CHANNELS 3 Xrotation Yrotation Zrotation
							End Site
							{
								OFFSET 0.000000 32.263779 0.000000
							}
						}
						JOINT Hat
						{
							OFFSET 16.728800 15.048294 -15.439601
							CHANNELS 3 Xrotation Yrotation Zrotation
							End Site
							{
								OFFSET 0.000000 32.263779 0.000000
							}
						}
					}
				}
				JOINT LeftShoulder
				{
					OFFSET 6.197800 13.665199 -4.064700
					CHANNELS 3 Xrotation Yrotation Zrotation
					JOINT LeftArm
					{
						OFFSET 7.778100 -0.187103 -1.709300
						CHANNELS 3 Xrotation Yrotation Zrotation
						JOINT LeftForeArm
						{
							OFFSET 22.049376 0.000000 0.000000
							CHANNELS 3 Xrotation Yrotation Zrotation
							JOINT LeftHand
							{
								OFFSET 23.009392 0.000000 0.000000
								CHANNELS 3 Xrotation Yrotation Zrotation
								JOINT LeftHandThumb1
								{
									OFFSET 3.507191 -2.063065 3.133727
									CHANNELS 3 Xrotation Yrotation Zrotation
									JOINT LeftHandThumb2
									{
										OFFSET 3.101337 -1.790558 1.790558
										CHANNELS 3 Xrotation Yrotation Zrotation
										JOINT LeftHandThumb3
										{
											OFFSET 3.058640 -1.765907 1.765906
											CHANNELS 3 Xrotation Yrotation Zrotation
											End Site
											{
												OFFSET -0.415260 3.926476 -0.049563
											}
										}
									}
								}
								JOINT LeftHandIndex1
								{
									OFFSET 11.334419 -0.901459 3.706815
									CHANNELS 3 Xrotation Yrotation Zrotation
									JOINT LeftHandIndex2
									{
										OFFSET 3.283112 0.000000 0.000000
										CHANNELS 3 Xrotation Yrotation Zrotation
										JOINT LeftHandIndex3
										{
											OFFSET 3.323853 0.000000 0.000000
											CHANNELS 3 Xrotation Yrotation Zrotation
											End Site
											{
												OFFSET -1.135597 3.097809 0.402452
											}
										}
									}
								}
								JOINT LeftHandMiddle1
								{
									OFFSET 11.335861 0.000000 0.000000
									CHANNELS 3 Xrotation Yrotation Zrotation
									JOINT LeftHandMiddle2
									{
										OFFSET 3.410492 0.000000 0.000000
										CHANNELS 3 Xrotation Yrotation Zrotation
										JOINT LeftHandMiddle3
										{
											OFFSET 3.312172 0.000000 0.000000
											CHANNELS 3 Xrotation Yrotation Zrotation
											End Site
											{
												OFFSET -1.150200 3.080154 0.400270
											}
										}
									}
								}
								JOINT LeftHandRing1
								{
									OFFSET 11.514786 -0.013176 -3.003090
									CHANNELS 3 Xrotation Yrotation Zrotation
									JOINT LeftHandRing2
									{
										OFFSET 3.053307 0.000000 0.000000
										CHANNELS 3 Xrotation Yrotation Zrotation
										JOINT LeftHandRing3
										{
											OFFSET 3.295807 0.000000 0.000000
											CHANNELS 3 Xrotation Yrotation Zrotation
											End Site
											{
												OFFSET -1.281006 3.013344 0.375733
											}
										}
									}
								}
								JOINT LeftHandPinky1
								{
									OFFSET 10.518692 -0.960396 -5.730441
									CHANNELS 3 Xrotation Yrotation Zrotation
									JOINT LeftHandPinky2
									{
										OFFSET 2.861649 0.000000 0.000000
										CHANNELS 3 Xrotation Yrotation Zrotation
										JOINT LeftHandPinky3
										{
											OFFSET 2.863380 0.000000 0.000000
											CHANNELS 3 Xrotation Yrotation Zrotation
											End Site
											{
												OFFSET -0.843597 2.711159 0.369971
											}
										}
									}
								}
							}
							JOINT LSleeve
							{
								OFFSET 6.676277 -0.344902 -1.011730
								CHANNELS 3 Xrotation Yrotation Zrotation
								End Site
								{
									OFFSET 0.000000 14.885353 0.000000
								}
							}
						}
					}
				}
				JOINT RightShoulder
				{
					OFFSET -6.197800 13.665199 -4.064700
					CHANNELS 3 Xrotation Yrotation Zrotation
					JOINT RightArm
					{
						OFFSET -7.778100 -0.187103 -1.709300
						CHANNELS 3 Xrotation Yrotation Zrotation
						JOINT RightForeArm
						{
							OFFSET -22.049376 0.000000 0.000000
							CHANNELS 3 Xrotation Yrotation Zrotation
							JOINT RightHand
							{
								OFFSET -23.009392 0.000000 0.000000
								CHANNELS 3 Xrotation Yrotation Zrotation
								JOINT RightHandThumb1
								{
									OFFSET -3.507191 -2.063065 3.133727
									CHANNELS 3 Xrotation Yrotation Zrotation
									JOINT RightHandThumb2
									{
										OFFSET -3.101337 -1.790558 1.790558
										CHANNELS 3 Xrotation Yrotation Zrotation
										JOINT RightHandThumb3
										{
											OFFSET -3.058640 -1.765907 1.765906
											CHANNELS 3 Xrotation Yrotation Zrotation
											End Site
											{
												OFFSET 0.415260 3.926476 -0.049563
											}
										}
									}
								}
								JOINT RightHandIndex1
								{
									OFFSET -11.334419 -0.901459 3.706815
									CHANNELS 3 Xrotation Yrotation Zrotation
									JOINT RightHandIndex2
									{
										OFFSET -3.283112 0.000000 0.000000
										CHANNELS 3 Xrotation Yrotation Zrotation
										JOINT RightHandIndex3
										{
											OFFSET -3.323853 0.000000 0.000000
											CHANNELS 3 Xrotation Yrotation Zrotation
											End Site
											{
												OFFSET 1.135597 3.097809 0.402452
											}
										}
									}
								}
								JOINT RightHandMiddle1
								{
									OFFSET -11.335861 0.000000 0.000000
									CHANNELS 3 Xrotation Yrotation Zrotation
									JOINT RightHandMiddle2
									{
										OFFSET -3.410492 0.000000 0.000000
										CHANNELS 3 Xrotation Yrotation Zrotation
										JOINT RightHandMiddle3
										{
											OFFSET -3.312172 0.000000 0.000000
											CHANNELS 3 Xrotation Yrotation Zrotation
											End Site
											{
												OFFSET 1.150200 3.080154 0.400270
											}
										}
									}
								}
								JOINT RightHandRing1
								{
									OFFSET -11.514786 -0.013176 -3.003090
									CHANNELS 3 Xrotation Yrotation Zrotation
									JOINT RightHandRing2
									{
										OFFSET -3.053307 0.000000 0.000000
										CHANNELS 3 Xrotation Yrotation Zrotation
										JOINT RightHandRing3
										{
											OFFSET -3.295807 0.000000 0.000000
											CHANNELS 3 Xrotation Yrotation Zrotation
											End Site
											{
												OFFSET 1.281006 3.013344 0.375733
											}
										}
									}
								}
								JOINT RightHandPinky1
								{
									OFFSET -10.518692 -0.960396 -5.730441
									CHANNELS 3 Xrotation Yrotation Zrotation
									JOINT RightHandPinky2
									{
										OFFSET -2.861649 0.000000 0.000000
										CHANNELS 3 Xrotation Yrotation Zrotation
										JOINT RightHandPinky3
										{
											OFFSET -2.863380 0.000000 0.000000
											CHANNELS 3 Xrotation Yrotation Zrotation
											End Site
											{
												OFFSET 0.843597 2.711159 0.369971
											}
										}
									}
								}
							}
							JOINT RSleeve
							{
								OFFSET -6.676277 -0.344902 -1.011730
								CHANNELS 3 Xrotation Yrotation Zrotation
								End Site
								{
									OFFSET 0.000000 14.885353 0.000000
								}
							}
						}
					}
				}
				JOINT Backpack
				{
					OFFSET 0.000000 -2.471497 36.677502
					CHANNELS 3 Xrotation Yrotation Zrotation
					End Site
					{
						OFFSET 0.000000 20.427315 0.000000
					}
				}
				JOINT Hood
				{
					OFFSET 0.000000 18.754097 -10.431000
					CHANNELS 3 Xrotation Yrotation Zrotation
					JOINT Hood1
					{
						OFFSET 0.000000 -5.011002 -7.685901
						CHANNELS 3 Xrotation Yrotation Zrotation
						End Site
						{
							OFFSET 0.000000 9.175140 0.000000
						}
					}
				}
				JOINT LHoodieString
				{
					OFFSET 5.250500 16.397697 3.089900
					CHANNELS 3 Xrotation Yrotation Zrotation
					JOINT LHoodieString1
					{
						OFFSET 0.257700 -6.364304 3.694600
						CHANNELS 3 Xrotation Yrotation Zrotation
						JOINT LHoodieString2
						{
							OFFSET 0.000000 -9.643799 2.679100
							CHANNELS 3 Xrotation Yrotation Zrotation
							End Site
							{
								OFFSET 0.000000 10.009018 0.000000
							}
						}
					}
				}
				JOINT RHoodieString
				{
					OFFSET -5.250500 16.397697 3.089900
					CHANNELS 3 Xrotation Yrotation Zrotation
					JOINT RHoodieString1
					{
						OFFSET -0.257700 -6.364304 3.694600
						CHANNELS 3 Xrotation Yrotation Zrotation
						JOINT RHoodieString2
						{
							OFFSET 0.000000 -9.643799 2.679100
							CHANNELS 3 Xrotation Yrotation Zrotation
							End Site
							{
								OFFSET 0.000000 10.009018 0.000000
							}
						}
					}
				}
			}
			JOINT LBackpack_Strap
			{
				OFFSET 15.223200 -7.719803 -6.610900
				CHANNELS 3 Xrotation Yrotation Zrotation
				End Site
				{
					OFFSET 0.000000 16.040596 0.000000
				}
			}
			JOINT RBackpack_Strap
			{
				OFFSET -15.223000 -7.719803 -6.610900
				CHANNELS 3 Xrotation Yrotation Zrotation
				End Site
				{
					OFFSET 0.000000 16.040596 0.000000
				}
			}
		}
	}
	JOINT BoyFacialAnim_Joint
	{
		OFFSET 1.000000 -82.208099 -1.550900
		CHANNELS 3 Xrotation Yrotation Zrotation
		End Site
		{
			OFFSET 0.000000 30.012791 0.000000
		}
	}
}
MOTION
Frames: 4
Frame Time: 0.016667
-0.097630 80.994034 0.499139 -2.388953 2.580483 -2.305645 -0.000000 0.000000 0.000000 -30.125830 3.708607 6.393569 60.150375 1.534748 0.551705 -0.857248 0.466715 -7.886942 -0.000001 0.000000 -0.000001 -0.000001 0.000000 -0.000001 -0.000001 0.000000 0.000000 -9.261232 -4.974323 6.740025 26.712892 6.923874 1.131981 -11.956688 1.691191 -10.009567 -0.000000 -0.000000 0.000000 -0.000000 -0.000000 0.000000 -0.000002 -0.000000 0.000000 14.311426 1.164189 2.879785 -4.344026 0.844260 -0.932464 -4.329081 0.772028 -1.030093 -0.100865 -1.689919 2.622581 -5.840173 -0.460686 -1.540065 -0.000000 -0.000000 -0.000000 -0.000000 -0.000000 -0.000000 -0.000000 -0.000000 -0.000000 2.370573 2.599456 -1.341534 -3.621913 -8.176781 -74.042311 12.004568 -10.521412 -9.011630 -0.378885 1.905183 11.578314 -4.982855 13.405850 11.311775 3.517302 8.486204 1.851539 0.000000 0.000001 0.000001 0.376740 -6.145592 -25.285024 -0.034565 0.056861 -22.183867 0.000001 -0.000000 -0.000004 -0.682814 -5.541212 -29.068339 -0.000935 0.003763 -24.675199 -0.000000 0.000000 0.000002 -1.915515 -6.193620 -34.198586 0.001200 0.005476 -28.105402 -0.000001 0.000002 0.000002 -3.466212 -6.910135 -39.124608 -0.009215 0.002706 -31.381652 -0.000002 0.000002 0.000002 -0.000000 0.000000 0.000000 3.460690 0.236087 4.393010 -1.477674 25.831497 70.378570 6.809927 19.846552 4.732006 -19.537635 0.958120 -12.165035 -0.782974 -20.555726 -5.075685 4.541227 -11.071015 -2.314880 -0.000003 0.000001 -0.000000 0.748713 1.485557 23.202846 -0.036694 -0.055029 19.908340 0.000001 -0.000002 -0.000000 -0.268009 2.185006 25.525062 -0.000247 0.002733 21.457821 0.000000 0.000003 0.000002 -1.284793 3.638243 29.547853 0.000939 -0.004739 24.164373 0.000003 -0.000003 0.000002 -2.714520 5.335784 33.797473 0.001092 -0.005444 26.995378 -0.000000 0.000001 0.000006 0.000000 0.000001 -0.000001 0.000000 -0.000000 0.000000 0.000000 -0.000000 0.000000 0.000000 -0.000000 0.000000 0.000000 -0.000000 0.000000 0.000000 -0.000000 0.000000 0.000000 -0.000000 -0.000000 0.000000 -0.000000 0.000000 0.000000 -0.000000 0.000000 0.000000 -0.000000 -0.000000 0.000000 -0.000000 0.000000 0.000000 -0.000000 0.000000 -0.000000 0.000000 0.000000 
-0.052333 81.001564 1.969858 -2.097757 2.579089 -2.164774 -0.000000 0.000000 -0.000000 -31.326751 4.058174 5.969658 56.342217 3.214175 0.723493 -3.103071 0.640989 -8.330876 -0.000001 0.000001 0.000000 -0.000001 0.000001 0.000000 0.000001 0.000000 0.000000 -7.947871 -4.791920 6.649003 26.110893 6.933302 1.118111 -12.971853 1.767227 -10.046827 0.000000 -0.000000 -0.000000 0.000000 -0.000000 -0.000000 0.000000 0.000001 0.000001 13.853207 1.247330 2.357408 -4.201588 0.892965 -0.666762 -4.191518 0.819880 -0.781021 -0.255758 -1.465164 1.579870 -5.913518 -0.520992 -1.287292 -0.000000 -0.000000 0.000000 -0.000000 -0.000000 0.000000 -0.000000 -0.000000 0.000000 2.324005 3.594486 -1.858790 -5.182927 -8.517500 -74.217812 13.513351 -7.452232 -9.595806 -0.259654 0.552259 12.123443 -4.611030 12.643996 10.485178 3.046230 8.093101 1.993688 0.000001 -0.000002 -0.000003 0.499972 -5.532699 -25.846812 -0.034989 0.056552 -21.764072 -0.000001 0.000001 -0.000002 -0.581745 -5.032870 -29.344665 -0.002092 0.002780 -24.439382 0.000001 0.000000 0.000002 -1.694725 -5.635567 -34.423808 0.001164 0.004482 -27.953077 0.000001 0.000003 0.000004 -3.233240 -6.534155 -39.113857 -0.009591 0.002100 -31.236200 0.000000 0.000002 0.000004 0.000000 0.000000 0.000000 3.316252 0.135376 3.709202 -1.140474 26.472813 70.621636 6.270906 20.923400 4.440115 -19.378783 -0.067526 -12.260780 -0.782999 -20.555750 -5.075715 4.541224 -11.070993 -2.314848 0.000002 -0.000001 -0.000001 0.835713 1.264219 23.346095 -0.036245 -0.055449 20.404412 -0.000000 -0.000000 -0.000002 -0.103425 1.748601 25.922006 0.002784 0.000340 22.036717 -0.000000 -0.000001 0.000003 -0.901173 2.879602 29.757044 0.000959 -0.007181 24.521573 -0.000003 -0.000002 0.000002 -2.300083 4.532109 33.918777 0.001099 -0.005462 26.995375 0.000001 0.000001 0.000002 -0.000001 -0.000002 0.000002 0.000000 0.000000 -0.000000 0.000000 0.000000 -0.000000 0.000000 0.000000 -0.000000 0.000000 0.000000 -0.000000 0.000000 0.000000 0.000000 0.000000 0.000000 -0.000000 0.000000 0.000000 -0.000000 0.000000 0.000000 0.000000 0.000000 0.000000 -0.000000 0.000000 0.000000 -0.000000 0.000000 0.000000 -0.000000 -0.000000 0.000000 -0.000000 
-0.001980 80.999550 3.437271 -1.810592 2.563595 -2.047293 0.000000 -0.000000 -0.000000 -32.053726 4.474679 5.512070 51.826895 4.612724 0.862399 -4.986080 0.743248 -8.382415 0.000001 -0.000001 -0.000001 0.000001 -0.000001 -0.000000 0.000000 0.000000 0.000000 -6.549157 -4.608904 6.581687 25.335337 6.955138 1.098140 -13.892624 1.834853 -10.069088 0.000000 0.000000 -0.000000 0.000000 0.000000 -0.000000 0.000001 -0.000000 0.000001 13.406184 1.323400 1.847929 -4.063002 0.931375 -0.396889 -4.058067 0.859316 -0.526225 -0.414968 -1.216299 0.632296 -5.993144 -0.515498 -1.112177 -0.000000 0.000000 0.000000 -0.000000 0.000000 0.000000 -0.000000 0.000000 0.000000 2.293006 4.627311 -2.392793 -5.506853 -8.443013 -74.188190 14.893542 -6.803948 -9.725357 -0.258307 0.377279 12.512785 -4.237391 11.847105 9.650360 2.554452 7.687007 2.138113 0.000001 0.000001 -0.000000 0.636835 -4.899850 -26.522717 -0.035371 0.056221 -21.348730 0.000001 -0.000001 -0.000002 -0.480188 -4.509839 -29.692533 -0.003247 0.001930 -24.231375 0.000003 -0.000001 -0.000000 -1.475599 -5.070189 -34.701490 0.001179 0.003639 -27.825987 0.000001 0.000004 0.000000 -3.008401 -6.155338 -39.135116 -0.009983 0.001497 -31.100273 -0.000001 0.000003 0.000002 -0.000001 -0.000000 0.000000 3.172853 0.077928 3.040196 -0.825463 27.075589 70.853562 5.774806 22.012735 4.151144 -19.183420 -1.039797 -12.335140 -0.783000 -20.555748 -5.075713 4.541223 -11.071012 -2.314831 0.000001 0.000001 -0.000001 0.933214 1.020114 23.504716 -0.035715 -0.055931 20.952741 0.000001 -0.000000 -0.000002 0.085470 1.269061 26.361866 0.006158 -0.002229 22.676496 0.000002 0.000002 0.000004 -0.470756 2.044492 29.993611 0.000945 -0.009815 24.916165 -0.000000 -0.000001 0.000000 -1.838119 3.646165 34.058021 0.001001 -0.005514 26.995343 -0.000000 0.000000 0.000002 0.000000 -0.000003 0.000001 0.000000 -0.000000 0.000000 0.000000 -0.000000 0.000000 0.000000 -0.000000 0.000000 0.000000 -0.000000 0.000000 0.000000 -0.000000 0.000000 0.000000 0.000000 -0.000000 0.000000 -0.000000 0.000000 0.000000 -0.000000 0.000000 0.000000 0.000000 -0.000000 0.000000 -0.000000 0.000000 0.000000 -0.000000 0.000000 0.000000 -0.000000 -0.000000 
0.063966 80.973129 4.917011 -1.536673 2.484944 -1.986922 0.000000 -0.000000 -0.000000 -32.595275 4.993151 5.053189 47.071748 4.894533 0.887176 -6.281853 0.659205 -7.400610 0.000000 -0.000001 -0.000000 0.000000 -0.000001 -0.000000 -0.000001 -0.000000 0.000000 -5.062205 -4.427289 6.558581 24.429020 7.041212 1.070696 -14.747714 1.897451 -10.083518 0.000000 -0.000000 0.000000 0.000000 -0.000000 0.000000 0.000002 -0.000000 0.000001 12.992902 1.380562 1.357995 -3.936375 0.933771 -0.112176 -3.937228 0.869281 -0.251161 -0.599166 -0.883966 0.016798 -6.093922 -0.280014 -1.208841 -0.000000 0.000000 0.000000 -0.000000 0.000000 0.000000 -0.000000 0.000000 0.000000 2.280166 5.688252 -2.939367 -5.297769 -8.186456 -74.092499 16.112041 -6.982456 -9.667919 -0.294414 0.544867 12.918269 -3.866435 11.023122 8.817667 2.050561 7.273107 2.280699 0.000000 -0.000000 -0.000001 0.790323 -4.258094 -27.263663 -0.035761 0.055886 -20.935886 -0.000002 -0.000001 -0.000004 -0.374509 -3.979270 -30.080788 -0.004223 0.001155 -24.039348 0.000000 0.000001 0.000000 -1.254272 -4.501964 -35.009528 0.001198 0.002874 -27.713108 0.000000 0.000001 0.000001 -2.787833 -5.775123 -39.174748 -0.010282 0.000906 -30.969874 0.000000 0.000001 0.000005 -0.000001 0.000001 -0.000000 3.040318 0.158976 2.424947 -0.575266 27.534396 71.051535 5.446437 23.125084 3.810650 -18.865162 -1.820279 -12.354598 -0.782956 -20.555728 -5.075695 4.541218 -11.071022 -2.314860 -0.000003 0.000001 0.000001 1.038883 0.759676 23.674863 -0.035135 -0.056385 21.539027 -0.000003 -0.000000 -0.000000 0.295527 0.759640 26.833552 0.006680 -0.005323 23.360693 -0.000001 -0.000000 0.000005 -0.002955 1.155660 30.252783 0.000979 -0.012626 25.338303 -0.000002 -0.000002 0.000000 -1.339537 2.701550 34.212786 0.001086 -0.005495 26.995365 -0.000003 -0.000003 -0.000007 -0.000002 -0.000002 0.000000 0.000000 0.000000 -0.000000 0.000000 0.000000 -0.000000 0.000000 0.000000 -0.000000 0.000000 0.000000 -0.000000 0.000000 0.000000 0.000000 0.000000 0.000000 0.000000 0.000000 0.000000 -0.000000 0.000000 0.000000 0.000000 0.000000 0.000000 0.000000 0.000000 0.000000 -0.000000 0.000000 0.000000 -0.000000 0.000000 -0.000000 -0.000000 
